# Blender v3.0.0 OBJ File: ''
# www.blender.org
v 0.000000 0.349707 5.292946
v 0.114200 0.342987 5.292946
v 0.224012 0.323087 5.292946
v 0.325214 0.290770 5.292946
v 0.413919 0.247280 5.292946
v 0.486718 0.194287 5.292946
v 0.540812 0.133827 5.292946
v 0.574123 0.068224 5.292946
v 0.585371 -0.000000 5.292946
v 0.574123 -0.068224 5.292946
v 0.540812 -0.133827 5.292946
v 0.486718 -0.194287 5.292946
v 0.413919 -0.247280 5.292946
v 0.325214 -0.290770 5.292946
v 0.224012 -0.323087 5.292946
v 0.114200 -0.342987 5.292946
v -0.000000 -0.349707 5.292946
v -0.114200 -0.342987 5.292946
v -0.224012 -0.323087 5.292946
v -0.325214 -0.290770 5.292946
v -0.413919 -0.247280 5.292946
v -0.486718 -0.194287 5.292946
v -0.540812 -0.133827 5.292946
v -0.574123 -0.068224 5.292946
v -0.585371 0.000000 5.292946
v -0.574123 0.068224 5.292946
v -0.540812 0.133827 5.292946
v -0.486718 0.194287 5.292946
v -0.413920 0.247280 5.292946
v -0.325214 0.290770 5.292946
v -0.224012 0.323087 5.292946
v -0.114200 0.342987 5.292946
v 0.000000 -0.000000 7.292946
vn 0.0579 0.9834 0.1720
vn 0.1755 0.9686 0.1761
vn 0.2990 0.9362 0.1847
vn 0.4315 0.8801 0.1981
vn 0.5746 0.7893 0.2165
vn 0.7237 0.6475 0.2390
vn 0.8605 0.4369 0.2619
vn 0.9479 0.1563 0.2774
vn 0.9479 -0.1563 0.2774
vn 0.8605 -0.4369 0.2619
vn 0.7237 -0.6475 0.2390
vn 0.5746 -0.7893 0.2165
vn 0.4315 -0.8801 0.1981
vn 0.2990 -0.9362 0.1847
vn 0.1755 -0.9686 0.1761
vn 0.0579 -0.9834 0.1720
vn -0.0579 -0.9834 0.1720
vn -0.1755 -0.9686 0.1761
vn -0.2990 -0.9362 0.1847
vn -0.4315 -0.8801 0.1981
vn -0.5746 -0.7893 0.2165
vn -0.7237 -0.6475 0.2390
vn -0.8605 -0.4369 0.2619
vn -0.9479 -0.1563 0.2774
vn -0.9479 0.1563 0.2774
vn -0.8605 0.4369 0.2619
vn -0.7237 0.6475 0.2390
vn -0.5746 0.7893 0.2165
vn -0.4315 0.8801 0.1981
vn -0.2990 0.9362 0.1847
vn -0.0000 0.0000 -1.0000
vn -0.1755 0.9686 0.1761
vn -0.0579 0.9834 0.1720
s off
f 1//1 33//1 2//1
f 2//2 33//2 3//2
f 3//3 33//3 4//3
f 4//4 33//4 5//4
f 5//5 33//5 6//5
f 6//6 33//6 7//6
f 7//7 33//7 8//7
f 8//8 33//8 9//8
f 9//9 33//9 10//9
f 10//10 33//10 11//10
f 11//11 33//11 12//11
f 12//12 33//12 13//12
f 13//13 33//13 14//13
f 14//14 33//14 15//14
f 15//15 33//15 16//15
f 16//16 33//16 17//16
f 17//17 33//17 18//17
f 18//18 33//18 19//18
f 19//19 33//19 20//19
f 20//20 33//20 21//20
f 21//21 33//21 22//21
f 22//22 33//22 23//22
f 23//23 33//23 24//23
f 24//24 33//24 25//24
f 25//25 33//25 26//25
f 26//26 33//26 27//26
f 27//27 33//27 28//27
f 28//28 33//28 29//28
f 29//29 33//29 30//29
f 30//30 33//30 31//30
f 1//31 2//31 3//31 4//31 5//31 6//31 7//31 8//31 9//31 10//31 11//31 12//31 13//31 14//31 15//31 16//31 17//31 18//31 19//31 20//31 21//31 22//31 23//31 24//31 25//31 26//31 27//31 28//31 29//31 30//31 31//31 32//31
f 31//32 33//32 32//32
f 32//33 33//33 1//33
v 0.000000 0.075813 0.009276
v 0.000000 0.075812 5.287436
v 0.042293 0.074356 0.009276
v 0.042293 0.074356 5.287436
v 0.082961 0.070042 0.009276
v 0.082961 0.070041 5.287436
v 0.120441 0.063036 0.009276
v 0.120441 0.063036 5.287436
v 0.153293 0.053608 0.009276
v 0.153293 0.053607 5.287436
v 0.180253 0.042119 0.009276
v 0.180253 0.042119 5.287436
v 0.200286 0.029012 0.009276
v 0.200286 0.029012 5.287436
v 0.212623 0.014790 0.009276
v 0.212623 0.014790 5.287436
v 0.216789 0.000000 0.009276
v 0.216789 -0.000000 5.287436
v 0.212623 -0.014790 0.009276
v 0.212623 -0.014790 5.287436
v 0.200286 -0.029012 0.009276
v 0.200286 -0.029012 5.287436
v 0.180253 -0.042119 0.009276
v 0.180253 -0.042119 5.287436
v 0.153293 -0.053607 0.009276
v 0.153293 -0.053608 5.287436
v 0.120441 -0.063036 0.009276
v 0.120441 -0.063036 5.287436
v 0.082961 -0.070041 0.009276
v 0.082961 -0.070042 5.287436
v 0.042293 -0.074356 0.009276
v 0.042293 -0.074356 5.287436
v -0.000000 -0.075812 0.009276
v -0.000000 -0.075813 5.287436
v -0.042293 -0.074356 0.009276
v -0.042293 -0.074356 5.287436
v -0.082961 -0.070041 0.009276
v -0.082961 -0.070042 5.287436
v -0.120441 -0.063036 0.009276
v -0.120441 -0.063036 5.287436
v -0.153293 -0.053607 0.009276
v -0.153293 -0.053608 5.287436
v -0.180253 -0.042119 0.009276
v -0.180253 -0.042119 5.287436
v -0.200286 -0.029012 0.009276
v -0.200286 -0.029012 5.287436
v -0.212623 -0.014790 0.009276
v -0.212623 -0.014790 5.287436
v -0.216789 0.000000 0.009276
v -0.216789 -0.000000 5.287436
v -0.212623 0.014790 0.009276
v -0.212623 0.014790 5.287436
v -0.200286 0.029012 0.009276
v -0.200286 0.029012 5.287436
v -0.180253 0.042119 0.009276
v -0.180253 0.042119 5.287436
v -0.153293 0.053608 0.009276
v -0.153293 0.053607 5.287436
v -0.120441 0.063036 0.009276
v -0.120441 0.063036 5.287436
v -0.082961 0.070042 0.009276
v -0.082961 0.070041 5.287436
v -0.042293 0.074356 0.009276
v -0.042293 0.074356 5.287436
vn 0.0344 0.9994 0.0000
vn 0.1055 0.9944 0.0000
vn 0.1837 0.9830 0.0000
vn 0.2759 0.9612 0.0000
vn 0.3920 0.9200 0.0000
vn 0.5475 0.8368 0.0000
vn 0.7554 0.6553 0.0000
vn 0.9626 0.2711 0.0000
vn 0.9626 -0.2711 -0.0000
vn 0.7554 -0.6553 -0.0000
vn 0.5475 -0.8368 -0.0000
vn 0.3920 -0.9200 -0.0000
vn 0.2759 -0.9612 -0.0000
vn 0.1837 -0.9830 -0.0000
vn 0.1055 -0.9944 -0.0000
vn 0.0344 -0.9994 -0.0000
vn -0.0344 -0.9994 -0.0000
vn -0.1055 -0.9944 -0.0000
vn -0.1837 -0.9830 -0.0000
vn -0.2759 -0.9612 -0.0000
vn -0.3920 -0.9200 -0.0000
vn -0.5475 -0.8368 -0.0000
vn -0.7554 -0.6553 -0.0000
vn -0.9626 -0.2711 -0.0000
vn -0.9626 0.2711 0.0000
vn -0.7554 0.6553 0.0000
vn -0.5475 0.8368 0.0000
vn -0.3920 0.9200 0.0000
vn -0.2759 0.9612 0.0000
vn -0.1837 0.9830 0.0000
vn -0.0000 0.0000 1.0000
vn -0.1055 0.9944 0.0000
vn -0.0344 0.9994 0.0000
vn -0.0000 0.0000 -1.0000
s off
f 34//34 35//34 37//34 36//34
f 36//35 37//35 39//35 38//35
f 38//36 39//36 41//36 40//36
f 40//37 41//37 43//37 42//37
f 42//38 43//38 45//38 44//38
f 44//39 45//39 47//39 46//39
f 46//40 47//40 49//40 48//40
f 48//41 49//41 51//41 50//41
f 50//42 51//42 53//42 52//42
f 52//43 53//43 55//43 54//43
f 54//44 55//44 57//44 56//44
f 56//45 57//45 59//45 58//45
f 58//46 59//46 61//46 60//46
f 60//47 61//47 63//47 62//47
f 62//48 63//48 65//48 64//48
f 64//49 65//49 67//49 66//49
f 66//50 67//50 69//50 68//50
f 68//51 69//51 71//51 70//51
f 70//52 71//52 73//52 72//52
f 72//53 73//53 75//53 74//53
f 74//54 75//54 77//54 76//54
f 76//55 77//55 79//55 78//55
f 78//56 79//56 81//56 80//56
f 80//57 81//57 83//57 82//57
f 82//58 83//58 85//58 84//58
f 84//59 85//59 87//59 86//59
f 86//60 87//60 89//60 88//60
f 88//61 89//61 91//61 90//61
f 90//62 91//62 93//62 92//62
f 92//63 93//63 95//63 94//63
f 37//64 35//64 97//64 95//64 93//64 91//64 89//64 87//64 85//64 83//64 81//64 79//64 77//64 75//64 73//64 71//64 69//64 67//64 65//64 63//64 61//64 59//64 57//64 55//64 53//64 51//64 49//64 47//64 45//64 43//64 41//64 39//64
f 94//65 95//65 97//65 96//65
f 96//66 97//66 35//66 34//66
f 34//67 36//67 38//67 40//67 42//67 44//67 46//67 48//67 50//67 52//67 54//67 56//67 58//67 60//67 62//67 64//67 66//67 68//67 70//67 72//67 74//67 76//67 78//67 80//67 82//67 84//67 86//67 88//67 90//67 92//67 94//67 96//67
